<?xml version="1.0" encoding="UTF-8" standalone="no"?>
<!-- Created with PhysiCell (http://PhysiCell.MathCancer.org/) -->
<svg 
 xmlns:dc="http://purl.org/dc/elements/1.1/" 
 xmlns:cc="http://creativecommons.org/ns#" 
 xmlns:rdf="http://www.w3.org/1999/02/22-rdf-syntax-ns#" 
 xmlns:svg="http://www.w3.org/2000/svg" 
 xmlns="http://www.w3.org/2000/svg" 
 version="1.1" 
 width="500" 
 height="535" 
 id="svg2">
  <rect x="0" y="0" width="500" height="535" stroke-width="1" stroke="white" fill="white"/>
  <text x="6.25" y="15"
   font-family="Arial" font-size="12.5" fill="black" >
   Current time: 0 days, 0 hours, and 0.00 minutes, z = 0.00 &#956;m
  </text>
  <text x="6.25" y="28.75"
   font-family="Arial" font-size="11.875" fill="black" >
   22 agents
  </text>
 <g id="tissue" 
    transform="translate(0,535) scale(1,-1)">
  <g id="ECM">
  </g>
  <g id="cells">
   <g id="cell0">
  <circle cx="250" cy="250" r="10.6" stroke-width="0.5" stroke="red" fill="red"/>
  <circle cx="250" cy="250" r="6.36509" stroke-width="0.5" stroke="red" fill="red"/>
   </g>
   <g id="cell1">
  <circle cx="230.842" cy="240.923" r="10.6" stroke-width="0.5" stroke="red" fill="red"/>
  <circle cx="230.842" cy="240.923" r="6.36509" stroke-width="0.5" stroke="red" fill="red"/>
   </g>
   <g id="cell2">
  <circle cx="263.426" cy="266.406" r="10.6" stroke-width="0.5" stroke="red" fill="red"/>
  <circle cx="263.426" cy="266.406" r="6.36509" stroke-width="0.5" stroke="red" fill="red"/>
   </g>
   <g id="cell3">
  <circle cx="244.892" cy="229.425" r="10.6" stroke-width="0.5" stroke="red" fill="red"/>
  <circle cx="244.892" cy="229.425" r="6.36509" stroke-width="0.5" stroke="red" fill="red"/>
   </g>
   <g id="cell4">
  <circle cx="245.806" cy="270.781" r="10.6" stroke-width="0.5" stroke="red" fill="red"/>
  <circle cx="245.806" cy="270.781" r="6.36509" stroke-width="0.5" stroke="red" fill="red"/>
   </g>
   <g id="cell5">
  <circle cx="262.688" cy="233.016" r="10.6" stroke-width="0.5" stroke="red" fill="red"/>
  <circle cx="262.688" cy="233.016" r="6.36509" stroke-width="0.5" stroke="red" fill="red"/>
   </g>
   <g id="cell6">
  <circle cx="231.262" cy="259.916" r="10.6" stroke-width="0.5" stroke="red" fill="red"/>
  <circle cx="231.262" cy="259.916" r="6.36509" stroke-width="0.5" stroke="red" fill="red"/>
   </g>
   <g id="cell7">
  <circle cx="271.179" cy="249.063" r="10.6" stroke-width="0.5" stroke="red" fill="red"/>
  <circle cx="271.179" cy="249.063" r="6.36509" stroke-width="0.5" stroke="red" fill="red"/>
   </g>
   <g id="cell8">
  <circle cx="259.304" cy="208.633" r="10.6" stroke-width="0.5" stroke="red" fill="red"/>
  <circle cx="259.304" cy="208.633" r="6.36509" stroke-width="0.5" stroke="red" fill="red"/>
   </g>
   <g id="cell9">
  <circle cx="211.683" cy="231.845" r="10.6" stroke-width="0.5" stroke="red" fill="red"/>
  <circle cx="211.683" cy="231.845" r="6.36509" stroke-width="0.5" stroke="red" fill="red"/>
   </g>
   <g id="cell10">
  <circle cx="223.879" cy="283.399" r="10.6" stroke-width="0.5" stroke="red" fill="red"/>
  <circle cx="223.879" cy="283.399" r="6.36509" stroke-width="0.5" stroke="red" fill="red"/>
   </g>
   <g id="cell11">
  <circle cx="276.853" cy="282.813" r="10.6" stroke-width="0.5" stroke="red" fill="red"/>
  <circle cx="276.853" cy="282.813" r="6.36509" stroke-width="0.5" stroke="red" fill="red"/>
   </g>
   <g id="cell12">
  <circle cx="287.906" cy="231.002" r="10.6" stroke-width="0.5" stroke="red" fill="red"/>
  <circle cx="287.906" cy="231.002" r="6.36509" stroke-width="0.5" stroke="red" fill="red"/>
   </g>
   <g id="cell13">
  <circle cx="239.783" cy="208.849" r="10.6" stroke-width="0.5" stroke="red" fill="red"/>
  <circle cx="239.783" cy="208.849" r="6.36509" stroke-width="0.5" stroke="red" fill="red"/>
   </g>
   <g id="cell14">
  <circle cx="207.61" cy="250.938" r="10.6" stroke-width="0.5" stroke="red" fill="red"/>
  <circle cx="207.61" cy="250.938" r="6.36509" stroke-width="0.5" stroke="red" fill="red"/>
   </g>
   <g id="cell15">
  <circle cx="241.613" cy="291.562" r="10.6" stroke-width="0.5" stroke="red" fill="red"/>
  <circle cx="241.613" cy="291.562" r="6.36509" stroke-width="0.5" stroke="red" fill="red"/>
   </g>
   <g id="cell16">
  <circle cx="288.709" cy="267.303" r="10.6" stroke-width="0.5" stroke="red" fill="red"/>
  <circle cx="288.709" cy="267.303" r="6.36509" stroke-width="0.5" stroke="red" fill="red"/>
   </g>
   <g id="cell17">
  <circle cx="275.376" cy="216.032" r="10.6" stroke-width="0.5" stroke="red" fill="red"/>
  <circle cx="275.376" cy="216.032" r="6.36509" stroke-width="0.5" stroke="red" fill="red"/>
   </g>
   <g id="cell18">
  <circle cx="222.428" cy="217.789" r="10.6" stroke-width="0.5" stroke="red" fill="red"/>
  <circle cx="222.428" cy="217.789" r="6.36509" stroke-width="0.5" stroke="red" fill="red"/>
   </g>
   <g id="cell19">
  <circle cx="212.524" cy="269.831" r="10.6" stroke-width="0.5" stroke="red" fill="red"/>
  <circle cx="212.524" cy="269.831" r="6.36509" stroke-width="0.5" stroke="red" fill="red"/>
   </g>
   <g id="cell20">
  <circle cx="261.124" cy="290.915" r="10.6" stroke-width="0.5" stroke="red" fill="red"/>
  <circle cx="261.124" cy="290.915" r="6.36509" stroke-width="0.5" stroke="red" fill="red"/>
   </g>
   <g id="cell21">
  <circle cx="292.359" cy="248.125" r="10.6" stroke-width="0.5" stroke="red" fill="red"/>
  <circle cx="292.359" cy="248.125" r="6.36509" stroke-width="0.5" stroke="red" fill="red"/>
   </g>
  </g>
 </g>
  <rect x="387.5" y="517.5" width="100" height="5" stroke-width="1" stroke="rgb(255,255,255)" fill="rgb(0,0,0)"/>
  <text x="390.625" y="514.375"
   font-family="Arial" font-size="12.5" fill="black" >
   100 &#956;m
  </text>
  <text x="12.5" y="522.5"
   font-family="Arial" font-size="9.375" fill="black" >
   0 days, 0 hours, 0 minutes, and 0.0010 seconds
  </text>
  <rect x="0" y="35" width="500" height="500" stroke-width="1" stroke="rgb(0,0,0)" fill="none"/>
</svg>
